<mxfile host="app.diagrams.net" modified="2021-11-12T08:23:50.465Z" agent="5.0 (Macintosh; Intel Mac OS X 10_15_7) AppleWebKit/537.36 (KHTML, like Gecko) Chrome/95.0.4638.69 Safari/537.36" etag="3VxPpOtOqmk87N0SMZwl" version="15.7.3" type="github">
  <diagram id="6a731a19-8d31-9384-78a2-239565b7b9f0" name="Page-1">
    <mxGraphModel dx="3910" dy="237" grid="0" gridSize="10" guides="1" tooltips="1" connect="1" arrows="1" fold="1" page="1" pageScale="1" pageWidth="1169" pageHeight="827" background="#ffffff" math="1" shadow="0">
      <root>
        <mxCell id="0" />
        <mxCell id="1" parent="0" />
        <mxCell id="PWVrWmLwcKZv5xCnu7mB-158" value="Cardano Network" style="rounded=1;whiteSpace=wrap;html=1;dashed=1;verticalAlign=top;horizontal=1;spacing=2;arcSize=2;glass=0;sketch=0;shadow=0;opacity=20;strokeColor=default;fillColor=default;fontColor=default;labelPosition=center;verticalLabelPosition=middle;align=center;strokeWidth=1;" parent="1" vertex="1">
          <mxGeometry x="-1823" y="839" width="644" height="348" as="geometry" />
        </mxCell>
        <mxCell id="-uzsMk_w0Du20uLRkKy_-36" value="Clients" style="ellipse;shape=cloud;whiteSpace=wrap;html=1;shadow=0;glass=0;labelBackgroundColor=none;labelBorderColor=none;comic=0;sketch=0;fontSize=18;fontColor=#000000;strokeColor=#3399FF;fillColor=none;verticalAlign=top;" parent="1" vertex="1">
          <mxGeometry x="-2023" y="840" width="200" height="344" as="geometry" />
        </mxCell>
        <mxCell id="PWVrWmLwcKZv5xCnu7mB-157" value="API Relay Backends" style="rounded=1;whiteSpace=wrap;html=1;dashed=1;verticalAlign=top;horizontal=0;spacing=2;arcSize=6;glass=0;sketch=0;shadow=0;opacity=20;strokeColor=#d79b00;fillColor=#ffe6cc;" parent="1" vertex="1">
          <mxGeometry x="-1729" y="877" width="291" height="281" as="geometry" />
        </mxCell>
        <mxCell id="PWVrWmLwcKZv5xCnu7mB-7" value="Dynamic Global Mempool" style="rounded=1;whiteSpace=wrap;dashed=1;verticalAlign=top;horizontal=1;spacing=2;arcSize=6;glass=0;sketch=0;shadow=0;opacity=20;strokeColor=default;fillColor=default;fontColor=default;html=1;labelBorderColor=none;labelBackgroundColor=none;" parent="1" vertex="1">
          <mxGeometry x="-1702.5" y="897" width="250" height="240" as="geometry" />
        </mxCell>
        <mxCell id="PWVrWmLwcKZv5xCnu7mB-66" value="" style="group" parent="1" vertex="1" connectable="0">
          <mxGeometry x="-1608.5" y="938" width="50" height="50" as="geometry" />
        </mxCell>
        <mxCell id="PWVrWmLwcKZv5xCnu7mB-67" value="Node" style="rounded=1;whiteSpace=wrap;html=1;fillColor=#ffe6cc;strokeColor=#d79b00;verticalAlign=top;treeFolding=0;treeMoving=0;comic=0;horizontal=0;" parent="PWVrWmLwcKZv5xCnu7mB-66" vertex="1">
          <mxGeometry width="50" height="49.99999999999997" as="geometry" />
        </mxCell>
        <mxCell id="PWVrWmLwcKZv5xCnu7mB-70" value="" style="rounded=0;whiteSpace=wrap;html=1;shadow=0;glass=0;labelBackgroundColor=none;sketch=0;verticalAlign=top;fillColor=#FFFF00;strokeColor=#FF8000;imageAspect=1;fontColor=#ffffff;" parent="PWVrWmLwcKZv5xCnu7mB-66" vertex="1">
          <mxGeometry x="30" y="-10" width="13.89" height="20" as="geometry" />
        </mxCell>
        <mxCell id="yDI7MJZ1IvgmgBcioRi8-4" value="" style="rounded=0;whiteSpace=wrap;html=1;shadow=0;glass=0;labelBackgroundColor=none;sketch=0;verticalAlign=top;fillColor=#60a917;strokeColor=none;imageAspect=1;fontColor=#ffffff;" parent="PWVrWmLwcKZv5xCnu7mB-66" vertex="1">
          <mxGeometry x="30" y="10.25" width="13.89" height="3" as="geometry" />
        </mxCell>
        <mxCell id="yDI7MJZ1IvgmgBcioRi8-5" value="" style="rounded=0;whiteSpace=wrap;html=1;shadow=0;glass=0;labelBackgroundColor=none;sketch=0;verticalAlign=top;fillColor=#1ba1e2;strokeColor=none;imageAspect=1;fontColor=#ffffff;" parent="PWVrWmLwcKZv5xCnu7mB-66" vertex="1">
          <mxGeometry x="30" y="16.25" width="13.89" height="3.5" as="geometry" />
        </mxCell>
        <mxCell id="yDI7MJZ1IvgmgBcioRi8-6" value="" style="rounded=0;whiteSpace=wrap;html=1;shadow=0;glass=0;labelBackgroundColor=none;sketch=0;verticalAlign=top;fillColor=#d80073;strokeColor=none;imageAspect=1;fontColor=#ffffff;" parent="PWVrWmLwcKZv5xCnu7mB-66" vertex="1">
          <mxGeometry x="30" y="13.25" width="13.89" height="3" as="geometry" />
        </mxCell>
        <mxCell id="yDI7MJZ1IvgmgBcioRi8-7" value="" style="rounded=0;whiteSpace=wrap;html=1;shadow=0;glass=0;labelBackgroundColor=none;sketch=0;verticalAlign=top;fillColor=#6a00ff;strokeColor=none;imageAspect=1;fontColor=#ffffff;" parent="PWVrWmLwcKZv5xCnu7mB-66" vertex="1">
          <mxGeometry x="30" y="19.75" width="13.89" height="10" as="geometry" />
        </mxCell>
        <mxCell id="yDI7MJZ1IvgmgBcioRi8-8" value="" style="rounded=0;whiteSpace=wrap;html=1;shadow=0;glass=0;labelBackgroundColor=none;sketch=0;verticalAlign=top;fillColor=#a20025;strokeColor=none;imageAspect=1;fontColor=#ffffff;" parent="PWVrWmLwcKZv5xCnu7mB-66" vertex="1">
          <mxGeometry x="30" y="29.75" width="13.89" height="10" as="geometry" />
        </mxCell>
        <mxCell id="PWVrWmLwcKZv5xCnu7mB-81" value="" style="group" parent="1" vertex="1" connectable="0">
          <mxGeometry x="-1508.5" y="1003" width="50" height="50" as="geometry" />
        </mxCell>
        <mxCell id="PWVrWmLwcKZv5xCnu7mB-82" value="Node" style="rounded=1;whiteSpace=wrap;html=1;fillColor=#ffe6cc;strokeColor=#d79b00;verticalAlign=top;treeFolding=0;treeMoving=0;comic=0;horizontal=0;" parent="PWVrWmLwcKZv5xCnu7mB-81" vertex="1">
          <mxGeometry width="50" height="49.99999999999997" as="geometry" />
        </mxCell>
        <mxCell id="PWVrWmLwcKZv5xCnu7mB-85" value="" style="rounded=0;whiteSpace=wrap;html=1;shadow=0;glass=0;labelBackgroundColor=none;sketch=0;verticalAlign=top;fillColor=#FFFF00;strokeColor=#FF8000;imageAspect=1;fontColor=#ffffff;" parent="PWVrWmLwcKZv5xCnu7mB-81" vertex="1">
          <mxGeometry x="30" y="-10" width="13.89" height="20" as="geometry" />
        </mxCell>
        <mxCell id="yDI7MJZ1IvgmgBcioRi8-14" value="" style="rounded=0;whiteSpace=wrap;html=1;shadow=0;glass=0;labelBackgroundColor=none;sketch=0;verticalAlign=top;fillColor=#60a917;strokeColor=none;imageAspect=1;fontColor=#ffffff;" parent="PWVrWmLwcKZv5xCnu7mB-81" vertex="1">
          <mxGeometry x="30" y="10.25" width="13.89" height="3" as="geometry" />
        </mxCell>
        <mxCell id="yDI7MJZ1IvgmgBcioRi8-15" value="" style="rounded=0;whiteSpace=wrap;html=1;shadow=0;glass=0;labelBackgroundColor=none;sketch=0;verticalAlign=top;fillColor=#1ba1e2;strokeColor=none;imageAspect=1;fontColor=#ffffff;" parent="PWVrWmLwcKZv5xCnu7mB-81" vertex="1">
          <mxGeometry x="30" y="16.25" width="13.89" height="3.5" as="geometry" />
        </mxCell>
        <mxCell id="yDI7MJZ1IvgmgBcioRi8-16" value="" style="rounded=0;whiteSpace=wrap;html=1;shadow=0;glass=0;labelBackgroundColor=none;sketch=0;verticalAlign=top;fillColor=#d80073;strokeColor=none;imageAspect=1;fontColor=#ffffff;" parent="PWVrWmLwcKZv5xCnu7mB-81" vertex="1">
          <mxGeometry x="30" y="13.25" width="13.89" height="3" as="geometry" />
        </mxCell>
        <mxCell id="yDI7MJZ1IvgmgBcioRi8-17" value="" style="rounded=0;whiteSpace=wrap;html=1;shadow=0;glass=0;labelBackgroundColor=none;sketch=0;verticalAlign=top;fillColor=#6a00ff;strokeColor=none;imageAspect=1;fontColor=#ffffff;" parent="PWVrWmLwcKZv5xCnu7mB-81" vertex="1">
          <mxGeometry x="30" y="19.75" width="13.89" height="10" as="geometry" />
        </mxCell>
        <mxCell id="yDI7MJZ1IvgmgBcioRi8-18" value="" style="rounded=0;whiteSpace=wrap;html=1;shadow=0;glass=0;labelBackgroundColor=none;sketch=0;verticalAlign=top;fillColor=#a20025;strokeColor=none;imageAspect=1;fontColor=#ffffff;" parent="PWVrWmLwcKZv5xCnu7mB-81" vertex="1">
          <mxGeometry x="30" y="29.75" width="13.89" height="10" as="geometry" />
        </mxCell>
        <mxCell id="PWVrWmLwcKZv5xCnu7mB-86" value="" style="group" parent="1" vertex="1" connectable="0">
          <mxGeometry x="-1608.5" y="1073" width="50" height="50" as="geometry" />
        </mxCell>
        <mxCell id="PWVrWmLwcKZv5xCnu7mB-87" value="Node" style="rounded=1;whiteSpace=wrap;html=1;fillColor=#ffe6cc;strokeColor=#d79b00;verticalAlign=top;treeFolding=0;treeMoving=0;comic=0;horizontal=0;" parent="PWVrWmLwcKZv5xCnu7mB-86" vertex="1">
          <mxGeometry width="50" height="49.99999999999997" as="geometry" />
        </mxCell>
        <mxCell id="PWVrWmLwcKZv5xCnu7mB-90" value="" style="rounded=0;whiteSpace=wrap;html=1;shadow=0;glass=0;labelBackgroundColor=none;sketch=0;verticalAlign=top;fillColor=#FFFF00;strokeColor=#FF8000;imageAspect=1;fontColor=#ffffff;" parent="PWVrWmLwcKZv5xCnu7mB-86" vertex="1">
          <mxGeometry x="30" y="-10" width="13.89" height="20" as="geometry" />
        </mxCell>
        <mxCell id="yDI7MJZ1IvgmgBcioRi8-9" value="" style="rounded=0;whiteSpace=wrap;html=1;shadow=0;glass=0;labelBackgroundColor=none;sketch=0;verticalAlign=top;fillColor=#60a917;strokeColor=none;imageAspect=1;fontColor=#ffffff;" parent="PWVrWmLwcKZv5xCnu7mB-86" vertex="1">
          <mxGeometry x="30" y="10.25" width="13.89" height="3" as="geometry" />
        </mxCell>
        <mxCell id="yDI7MJZ1IvgmgBcioRi8-10" value="" style="rounded=0;whiteSpace=wrap;html=1;shadow=0;glass=0;labelBackgroundColor=none;sketch=0;verticalAlign=top;fillColor=#1ba1e2;strokeColor=none;imageAspect=1;fontColor=#ffffff;" parent="PWVrWmLwcKZv5xCnu7mB-86" vertex="1">
          <mxGeometry x="30" y="16.25" width="13.89" height="3.5" as="geometry" />
        </mxCell>
        <mxCell id="yDI7MJZ1IvgmgBcioRi8-11" value="" style="rounded=0;whiteSpace=wrap;html=1;shadow=0;glass=0;labelBackgroundColor=none;sketch=0;verticalAlign=top;fillColor=#d80073;strokeColor=none;imageAspect=1;fontColor=#ffffff;" parent="PWVrWmLwcKZv5xCnu7mB-86" vertex="1">
          <mxGeometry x="30" y="13.25" width="13.89" height="3" as="geometry" />
        </mxCell>
        <mxCell id="yDI7MJZ1IvgmgBcioRi8-12" value="" style="rounded=0;whiteSpace=wrap;html=1;shadow=0;glass=0;labelBackgroundColor=none;sketch=0;verticalAlign=top;fillColor=#6a00ff;strokeColor=none;imageAspect=1;fontColor=#ffffff;" parent="PWVrWmLwcKZv5xCnu7mB-86" vertex="1">
          <mxGeometry x="30" y="19.75" width="13.89" height="10" as="geometry" />
        </mxCell>
        <mxCell id="yDI7MJZ1IvgmgBcioRi8-13" value="" style="rounded=0;whiteSpace=wrap;html=1;shadow=0;glass=0;labelBackgroundColor=none;sketch=0;verticalAlign=top;fillColor=#a20025;strokeColor=none;imageAspect=1;fontColor=#ffffff;" parent="PWVrWmLwcKZv5xCnu7mB-86" vertex="1">
          <mxGeometry x="30" y="29.75" width="13.89" height="10" as="geometry" />
        </mxCell>
        <mxCell id="PWVrWmLwcKZv5xCnu7mB-112" value="" style="group" parent="1" vertex="1" connectable="0">
          <mxGeometry x="-1309.5" y="886" width="50" height="50" as="geometry" />
        </mxCell>
        <mxCell id="PWVrWmLwcKZv5xCnu7mB-113" value="Node" style="rounded=1;whiteSpace=wrap;html=1;fillColor=#ffe6cc;strokeColor=#d79b00;verticalAlign=top;treeFolding=0;treeMoving=0;comic=0;horizontal=0;" parent="PWVrWmLwcKZv5xCnu7mB-112" vertex="1">
          <mxGeometry width="50" height="49.99999999999997" as="geometry" />
        </mxCell>
        <mxCell id="PWVrWmLwcKZv5xCnu7mB-120" value="" style="rounded=0;whiteSpace=wrap;html=1;shadow=0;glass=0;labelBackgroundColor=none;sketch=0;verticalAlign=top;fillColor=#6a00ff;strokeColor=none;imageAspect=1;fontColor=#ffffff;" parent="PWVrWmLwcKZv5xCnu7mB-112" vertex="1">
          <mxGeometry x="30" y="19.5" width="13.89" height="10" as="geometry" />
        </mxCell>
        <mxCell id="PWVrWmLwcKZv5xCnu7mB-115" value="" style="rounded=0;whiteSpace=wrap;html=1;shadow=0;glass=0;labelBackgroundColor=none;sketch=0;verticalAlign=top;fillColor=#a20025;strokeColor=none;imageAspect=1;fontColor=#ffffff;" parent="PWVrWmLwcKZv5xCnu7mB-112" vertex="1">
          <mxGeometry x="30" y="29.5" width="13.89" height="10" as="geometry" />
        </mxCell>
        <mxCell id="yDI7MJZ1IvgmgBcioRi8-1" value="" style="rounded=0;whiteSpace=wrap;html=1;shadow=0;glass=0;labelBackgroundColor=none;sketch=0;verticalAlign=top;fillColor=#60a917;strokeColor=none;imageAspect=1;fontColor=#ffffff;" parent="PWVrWmLwcKZv5xCnu7mB-112" vertex="1">
          <mxGeometry x="30" y="10" width="13.89" height="3" as="geometry" />
        </mxCell>
        <mxCell id="yDI7MJZ1IvgmgBcioRi8-2" value="" style="rounded=0;whiteSpace=wrap;html=1;shadow=0;glass=0;labelBackgroundColor=none;sketch=0;verticalAlign=top;fillColor=#1ba1e2;strokeColor=none;imageAspect=1;fontColor=#ffffff;" parent="PWVrWmLwcKZv5xCnu7mB-112" vertex="1">
          <mxGeometry x="30" y="16" width="13.89" height="3.5" as="geometry" />
        </mxCell>
        <mxCell id="yDI7MJZ1IvgmgBcioRi8-3" value="" style="rounded=0;whiteSpace=wrap;html=1;shadow=0;glass=0;labelBackgroundColor=none;sketch=0;verticalAlign=top;fillColor=#d80073;strokeColor=none;imageAspect=1;fontColor=#ffffff;" parent="PWVrWmLwcKZv5xCnu7mB-112" vertex="1">
          <mxGeometry x="30" y="13" width="13.89" height="3" as="geometry" />
        </mxCell>
        <mxCell id="PWVrWmLwcKZv5xCnu7mB-122" value="" style="group" parent="1" vertex="1" connectable="0">
          <mxGeometry x="-1383.5" y="1004.25" width="50" height="50" as="geometry" />
        </mxCell>
        <mxCell id="PWVrWmLwcKZv5xCnu7mB-123" value="Node" style="rounded=1;whiteSpace=wrap;html=1;fillColor=#ffe6cc;strokeColor=#d79b00;verticalAlign=top;treeFolding=0;treeMoving=0;comic=0;horizontal=0;" parent="PWVrWmLwcKZv5xCnu7mB-122" vertex="1">
          <mxGeometry width="50" height="49.99999999999997" as="geometry" />
        </mxCell>
        <mxCell id="PWVrWmLwcKZv5xCnu7mB-124" value="" style="rounded=0;whiteSpace=wrap;html=1;shadow=0;glass=0;labelBackgroundColor=none;sketch=0;verticalAlign=top;fillColor=#60a917;strokeColor=none;imageAspect=1;fontColor=#ffffff;" parent="PWVrWmLwcKZv5xCnu7mB-122" vertex="1">
          <mxGeometry x="30" y="10" width="13.89" height="3" as="geometry" />
        </mxCell>
        <mxCell id="PWVrWmLwcKZv5xCnu7mB-125" value="" style="rounded=0;whiteSpace=wrap;html=1;shadow=0;glass=0;labelBackgroundColor=none;sketch=0;verticalAlign=top;fillColor=#1ba1e2;strokeColor=none;imageAspect=1;fontColor=#ffffff;" parent="PWVrWmLwcKZv5xCnu7mB-122" vertex="1">
          <mxGeometry x="30" y="16" width="13.89" height="3.5" as="geometry" />
        </mxCell>
        <mxCell id="PWVrWmLwcKZv5xCnu7mB-126" value="" style="rounded=0;whiteSpace=wrap;html=1;shadow=0;glass=0;labelBackgroundColor=none;sketch=0;verticalAlign=top;fillColor=#d80073;strokeColor=none;imageAspect=1;fontColor=#ffffff;" parent="PWVrWmLwcKZv5xCnu7mB-122" vertex="1">
          <mxGeometry x="30" y="13" width="13.89" height="3" as="geometry" />
        </mxCell>
        <mxCell id="PWVrWmLwcKZv5xCnu7mB-127" value="" style="rounded=0;whiteSpace=wrap;html=1;shadow=0;glass=0;labelBackgroundColor=none;sketch=0;verticalAlign=top;fillColor=#6a00ff;strokeColor=none;imageAspect=1;fontColor=#ffffff;" parent="PWVrWmLwcKZv5xCnu7mB-122" vertex="1">
          <mxGeometry x="30" y="19.5" width="13.89" height="10" as="geometry" />
        </mxCell>
        <mxCell id="PWVrWmLwcKZv5xCnu7mB-128" value="" style="rounded=0;whiteSpace=wrap;html=1;shadow=0;glass=0;labelBackgroundColor=none;sketch=0;verticalAlign=top;fillColor=#a20025;strokeColor=none;imageAspect=1;fontColor=#ffffff;" parent="PWVrWmLwcKZv5xCnu7mB-122" vertex="1">
          <mxGeometry x="30" y="29.5" width="13.89" height="10" as="geometry" />
        </mxCell>
        <mxCell id="PWVrWmLwcKZv5xCnu7mB-154" style="edgeStyle=orthogonalEdgeStyle;rounded=0;jumpStyle=none;orthogonalLoop=1;jettySize=auto;html=1;entryX=0;entryY=0.5;entryDx=0;entryDy=0;fontColor=default;startArrow=async;startFill=1;endArrow=async;endFill=1;targetPerimeterSpacing=0;strokeColor=#5C5C5C;dashed=1;dashPattern=1 1;" parent="1" source="PWVrWmLwcKZv5xCnu7mB-82" target="PWVrWmLwcKZv5xCnu7mB-123" edge="1">
          <mxGeometry relative="1" as="geometry">
            <Array as="points">
              <mxPoint x="-1437.5" y="1029.25" />
              <mxPoint x="-1437.5" y="1029.25" />
            </Array>
          </mxGeometry>
        </mxCell>
        <mxCell id="PWVrWmLwcKZv5xCnu7mB-155" style="edgeStyle=orthogonalEdgeStyle;rounded=0;jumpStyle=none;orthogonalLoop=1;jettySize=auto;html=1;fontColor=default;startArrow=async;startFill=1;endArrow=async;endFill=1;targetPerimeterSpacing=0;strokeColor=#5C5C5C;dashed=1;dashPattern=1 1;entryX=0;entryY=0.5;entryDx=0;entryDy=0;" parent="1" source="PWVrWmLwcKZv5xCnu7mB-67" target="PWVrWmLwcKZv5xCnu7mB-113" edge="1">
          <mxGeometry relative="1" as="geometry">
            <Array as="points">
              <mxPoint x="-1424.5" y="964" />
              <mxPoint x="-1424.5" y="911" />
            </Array>
          </mxGeometry>
        </mxCell>
        <mxCell id="PWVrWmLwcKZv5xCnu7mB-156" style="edgeStyle=orthogonalEdgeStyle;rounded=0;jumpStyle=none;orthogonalLoop=1;jettySize=auto;html=1;fontColor=default;startArrow=async;startFill=1;endArrow=async;endFill=1;targetPerimeterSpacing=0;strokeColor=#5C5C5C;dashed=1;dashPattern=1 1;entryX=0;entryY=0.5;entryDx=0;entryDy=0;" parent="1" source="PWVrWmLwcKZv5xCnu7mB-87" target="-uzsMk_w0Du20uLRkKy_-2" edge="1">
          <mxGeometry relative="1" as="geometry">
            <Array as="points">
              <mxPoint x="-1426.5" y="1099" />
              <mxPoint x="-1426.5" y="1146" />
            </Array>
          </mxGeometry>
        </mxCell>
        <mxCell id="-uzsMk_w0Du20uLRkKy_-1" value="" style="group" parent="1" vertex="1" connectable="0">
          <mxGeometry x="-1309.5" y="1121" width="50" height="50" as="geometry" />
        </mxCell>
        <mxCell id="-uzsMk_w0Du20uLRkKy_-2" value="Node" style="rounded=1;whiteSpace=wrap;html=1;fillColor=#ffe6cc;strokeColor=#d79b00;verticalAlign=top;treeFolding=0;treeMoving=0;comic=0;horizontal=0;" parent="-uzsMk_w0Du20uLRkKy_-1" vertex="1">
          <mxGeometry width="50" height="49.99999999999997" as="geometry" />
        </mxCell>
        <mxCell id="-uzsMk_w0Du20uLRkKy_-3" value="" style="rounded=0;whiteSpace=wrap;html=1;shadow=0;glass=0;labelBackgroundColor=none;sketch=0;verticalAlign=top;fillColor=#60a917;strokeColor=none;imageAspect=1;fontColor=#ffffff;" parent="-uzsMk_w0Du20uLRkKy_-1" vertex="1">
          <mxGeometry x="30" y="10" width="13.89" height="3" as="geometry" />
        </mxCell>
        <mxCell id="-uzsMk_w0Du20uLRkKy_-4" value="" style="rounded=0;whiteSpace=wrap;html=1;shadow=0;glass=0;labelBackgroundColor=none;sketch=0;verticalAlign=top;fillColor=#1ba1e2;strokeColor=none;imageAspect=1;fontColor=#ffffff;" parent="-uzsMk_w0Du20uLRkKy_-1" vertex="1">
          <mxGeometry x="30" y="16" width="13.89" height="3.5" as="geometry" />
        </mxCell>
        <mxCell id="-uzsMk_w0Du20uLRkKy_-5" value="" style="rounded=0;whiteSpace=wrap;html=1;shadow=0;glass=0;labelBackgroundColor=none;sketch=0;verticalAlign=top;fillColor=#d80073;strokeColor=none;imageAspect=1;fontColor=#ffffff;" parent="-uzsMk_w0Du20uLRkKy_-1" vertex="1">
          <mxGeometry x="30" y="13" width="13.89" height="3" as="geometry" />
        </mxCell>
        <mxCell id="-uzsMk_w0Du20uLRkKy_-6" value="" style="rounded=0;whiteSpace=wrap;html=1;shadow=0;glass=0;labelBackgroundColor=none;sketch=0;verticalAlign=top;fillColor=#6a00ff;strokeColor=none;imageAspect=1;fontColor=#ffffff;" parent="-uzsMk_w0Du20uLRkKy_-1" vertex="1">
          <mxGeometry x="30" y="19.5" width="13.89" height="10" as="geometry" />
        </mxCell>
        <mxCell id="-uzsMk_w0Du20uLRkKy_-7" value="" style="rounded=0;whiteSpace=wrap;html=1;shadow=0;glass=0;labelBackgroundColor=none;sketch=0;verticalAlign=top;fillColor=#a20025;strokeColor=none;imageAspect=1;fontColor=#ffffff;" parent="-uzsMk_w0Du20uLRkKy_-1" vertex="1">
          <mxGeometry x="30" y="29.5" width="13.89" height="10" as="geometry" />
        </mxCell>
        <mxCell id="-uzsMk_w0Du20uLRkKy_-8" value="" style="group" parent="1" vertex="1" connectable="0">
          <mxGeometry x="-1236.5" y="1005" width="50" height="50" as="geometry" />
        </mxCell>
        <mxCell id="-uzsMk_w0Du20uLRkKy_-9" value="Node" style="rounded=1;whiteSpace=wrap;html=1;fillColor=#ffe6cc;strokeColor=#d79b00;verticalAlign=top;treeFolding=0;treeMoving=0;comic=0;horizontal=0;" parent="-uzsMk_w0Du20uLRkKy_-8" vertex="1">
          <mxGeometry width="50" height="49.99999999999997" as="geometry" />
        </mxCell>
        <mxCell id="-uzsMk_w0Du20uLRkKy_-10" value="" style="rounded=0;whiteSpace=wrap;html=1;shadow=0;glass=0;labelBackgroundColor=none;sketch=0;verticalAlign=top;fillColor=#60a917;strokeColor=none;imageAspect=1;fontColor=#ffffff;" parent="-uzsMk_w0Du20uLRkKy_-8" vertex="1">
          <mxGeometry x="30" y="10" width="13.89" height="3" as="geometry" />
        </mxCell>
        <mxCell id="-uzsMk_w0Du20uLRkKy_-11" value="" style="rounded=0;whiteSpace=wrap;html=1;shadow=0;glass=0;labelBackgroundColor=none;sketch=0;verticalAlign=top;fillColor=#1ba1e2;strokeColor=none;imageAspect=1;fontColor=#ffffff;" parent="-uzsMk_w0Du20uLRkKy_-8" vertex="1">
          <mxGeometry x="30" y="16" width="13.89" height="3.5" as="geometry" />
        </mxCell>
        <mxCell id="-uzsMk_w0Du20uLRkKy_-12" value="" style="rounded=0;whiteSpace=wrap;html=1;shadow=0;glass=0;labelBackgroundColor=none;sketch=0;verticalAlign=top;fillColor=#d80073;strokeColor=none;imageAspect=1;fontColor=#ffffff;" parent="-uzsMk_w0Du20uLRkKy_-8" vertex="1">
          <mxGeometry x="30" y="13" width="13.89" height="3" as="geometry" />
        </mxCell>
        <mxCell id="-uzsMk_w0Du20uLRkKy_-13" value="" style="rounded=0;whiteSpace=wrap;html=1;shadow=0;glass=0;labelBackgroundColor=none;sketch=0;verticalAlign=top;fillColor=#6a00ff;strokeColor=none;imageAspect=1;fontColor=#ffffff;" parent="-uzsMk_w0Du20uLRkKy_-8" vertex="1">
          <mxGeometry x="30" y="19.5" width="13.89" height="10" as="geometry" />
        </mxCell>
        <mxCell id="-uzsMk_w0Du20uLRkKy_-14" value="" style="rounded=0;whiteSpace=wrap;html=1;shadow=0;glass=0;labelBackgroundColor=none;sketch=0;verticalAlign=top;fillColor=#a20025;strokeColor=none;imageAspect=1;fontColor=#ffffff;" parent="-uzsMk_w0Du20uLRkKy_-8" vertex="1">
          <mxGeometry x="30" y="29.5" width="13.89" height="10" as="geometry" />
        </mxCell>
        <mxCell id="-uzsMk_w0Du20uLRkKy_-15" style="edgeStyle=none;rounded=0;jumpStyle=none;orthogonalLoop=1;jettySize=auto;html=1;fontColor=default;startArrow=async;startFill=1;endArrow=async;endFill=1;targetPerimeterSpacing=0;strokeColor=#5C5C5C;exitX=0.5;exitY=1;exitDx=0;exitDy=0;entryX=0;entryY=0.5;entryDx=0;entryDy=0;dashed=1;dashPattern=1 1;" parent="1" source="PWVrWmLwcKZv5xCnu7mB-113" target="-uzsMk_w0Du20uLRkKy_-9" edge="1">
          <mxGeometry relative="1" as="geometry" />
        </mxCell>
        <mxCell id="-uzsMk_w0Du20uLRkKy_-16" style="edgeStyle=none;rounded=0;jumpStyle=none;orthogonalLoop=1;jettySize=auto;html=1;entryX=0.5;entryY=0;entryDx=0;entryDy=0;fontColor=default;startArrow=async;startFill=1;endArrow=async;endFill=1;targetPerimeterSpacing=0;strokeColor=#5C5C5C;exitX=0;exitY=0.5;exitDx=0;exitDy=0;dashed=1;dashPattern=1 1;" parent="1" source="-uzsMk_w0Du20uLRkKy_-9" target="-uzsMk_w0Du20uLRkKy_-2" edge="1">
          <mxGeometry relative="1" as="geometry" />
        </mxCell>
        <mxCell id="-uzsMk_w0Du20uLRkKy_-17" style="edgeStyle=none;rounded=0;jumpStyle=none;orthogonalLoop=1;jettySize=auto;html=1;fontColor=default;startArrow=async;startFill=1;endArrow=async;endFill=1;targetPerimeterSpacing=0;strokeColor=#5C5C5C;entryX=1;entryY=0.5;entryDx=0;entryDy=0;exitX=0.5;exitY=1;exitDx=0;exitDy=0;dashed=1;dashPattern=1 1;" parent="1" source="PWVrWmLwcKZv5xCnu7mB-113" target="PWVrWmLwcKZv5xCnu7mB-123" edge="1">
          <mxGeometry relative="1" as="geometry" />
        </mxCell>
        <mxCell id="-uzsMk_w0Du20uLRkKy_-18" style="edgeStyle=none;rounded=0;jumpStyle=none;orthogonalLoop=1;jettySize=auto;html=1;entryX=1;entryY=0.5;entryDx=0;entryDy=0;fontColor=default;startArrow=async;startFill=1;endArrow=async;endFill=1;targetPerimeterSpacing=0;strokeColor=#5C5C5C;exitX=0.5;exitY=0;exitDx=0;exitDy=0;dashed=1;dashPattern=1 1;" parent="1" source="-uzsMk_w0Du20uLRkKy_-2" target="PWVrWmLwcKZv5xCnu7mB-123" edge="1">
          <mxGeometry relative="1" as="geometry" />
        </mxCell>
        <mxCell id="-uzsMk_w0Du20uLRkKy_-31" style="edgeStyle=orthogonalEdgeStyle;rounded=0;jumpStyle=none;orthogonalLoop=1;jettySize=auto;html=1;entryX=0;entryY=0.5;entryDx=0;entryDy=0;labelBackgroundColor=none;fontColor=#B0B0B0;startArrow=none;startFill=0;endArrow=open;endFill=0;targetPerimeterSpacing=0;strokeColor=default;dashed=1;" parent="1" source="-uzsMk_w0Du20uLRkKy_-26" target="-uzsMk_w0Du20uLRkKy_-29" edge="1">
          <mxGeometry relative="1" as="geometry">
            <Array as="points">
              <mxPoint x="-1854" y="970" />
              <mxPoint x="-1854" y="1017" />
            </Array>
          </mxGeometry>
        </mxCell>
        <mxCell id="-uzsMk_w0Du20uLRkKy_-26" value="Desktops" style="sketch=0;outlineConnect=0;gradientColor=none;fontColor=#545B64;strokeColor=none;fillColor=#879196;dashed=0;verticalLabelPosition=bottom;verticalAlign=top;align=center;html=1;fontSize=12;fontStyle=0;aspect=fixed;shape=mxgraph.aws4.illustration_desktop;pointerEvents=1;shadow=0;glass=0;labelBackgroundColor=none;comic=0;" parent="1" vertex="1">
          <mxGeometry x="-1947.44" y="955" width="31.87" height="29" as="geometry" />
        </mxCell>
        <mxCell id="-uzsMk_w0Du20uLRkKy_-30" style="edgeStyle=orthogonalEdgeStyle;rounded=0;jumpStyle=none;orthogonalLoop=1;jettySize=auto;html=1;entryX=0;entryY=0.5;entryDx=0;entryDy=0;labelBackgroundColor=none;fontColor=#B0B0B0;startArrow=none;startFill=0;endArrow=open;endFill=0;targetPerimeterSpacing=0;strokeColor=default;dashed=1;" parent="1" source="-uzsMk_w0Du20uLRkKy_-27" target="-uzsMk_w0Du20uLRkKy_-29" edge="1">
          <mxGeometry relative="1" as="geometry">
            <Array as="points">
              <mxPoint x="-1854" y="1072" />
              <mxPoint x="-1854" y="1017" />
            </Array>
          </mxGeometry>
        </mxCell>
        <mxCell id="-uzsMk_w0Du20uLRkKy_-27" value="Mobiles" style="sketch=0;outlineConnect=0;fontColor=#232F3E;gradientColor=none;strokeColor=#232F3E;fillColor=#ffffff;dashed=0;verticalLabelPosition=bottom;verticalAlign=top;align=center;html=1;fontSize=12;fontStyle=0;aspect=fixed;shape=mxgraph.aws4.resourceIcon;resIcon=mxgraph.aws4.mobile_client;shadow=0;glass=0;labelBackgroundColor=none;comic=0;" parent="1" vertex="1">
          <mxGeometry x="-1948" y="1050" width="33" height="33" as="geometry" />
        </mxCell>
        <mxCell id="-uzsMk_w0Du20uLRkKy_-29" value="API Front End" style="rounded=1;whiteSpace=wrap;html=1;dashed=1;verticalAlign=top;horizontal=0;spacing=2;arcSize=6;glass=0;sketch=0;shadow=0;opacity=20;strokeColor=#82b366;fillColor=#d5e8d4;" parent="1" vertex="1">
          <mxGeometry x="-1795" y="878" width="38" height="278" as="geometry" />
        </mxCell>
        <mxCell id="yDI7MJZ1IvgmgBcioRi8-28" style="edgeStyle=orthogonalEdgeStyle;rounded=0;orthogonalLoop=1;jettySize=auto;html=1;entryX=0;entryY=0.5;entryDx=0;entryDy=0;startArrow=none;startFill=0;endArrow=block;endFill=0;fillColor=#f0a30a;strokeColor=#00CC00;strokeWidth=4;" parent="1" source="yDI7MJZ1IvgmgBcioRi8-20" target="PWVrWmLwcKZv5xCnu7mB-67" edge="1">
          <mxGeometry relative="1" as="geometry" />
        </mxCell>
        <mxCell id="yDI7MJZ1IvgmgBcioRi8-20" value="Node Client" style="rounded=1;whiteSpace=wrap;html=1;fillColor=#60a917;strokeColor=#2D7600;verticalAlign=top;treeFolding=0;treeMoving=0;comic=0;horizontal=0;container=0;fontColor=#ffffff;" parent="1" vertex="1">
          <mxGeometry x="-1692.5" y="938" width="36" height="50" as="geometry" />
        </mxCell>
        <mxCell id="yDI7MJZ1IvgmgBcioRi8-31" style="edgeStyle=orthogonalEdgeStyle;rounded=0;orthogonalLoop=1;jettySize=auto;html=1;startArrow=none;startFill=0;endArrow=block;endFill=0;strokeColor=#00CC00;strokeWidth=4;" parent="1" source="yDI7MJZ1IvgmgBcioRi8-26" target="PWVrWmLwcKZv5xCnu7mB-82" edge="1">
          <mxGeometry relative="1" as="geometry" />
        </mxCell>
        <mxCell id="yDI7MJZ1IvgmgBcioRi8-26" value="Node Client" style="rounded=1;whiteSpace=wrap;html=1;fillColor=#60a917;strokeColor=#2D7600;verticalAlign=top;treeFolding=0;treeMoving=0;comic=0;horizontal=0;container=0;fontColor=#ffffff;" parent="1" vertex="1">
          <mxGeometry x="-1578.5" y="1003" width="36" height="50" as="geometry" />
        </mxCell>
        <mxCell id="yDI7MJZ1IvgmgBcioRi8-32" style="edgeStyle=orthogonalEdgeStyle;rounded=0;orthogonalLoop=1;jettySize=auto;html=1;startArrow=none;startFill=0;endArrow=block;endFill=0;strokeColor=#00CC00;strokeWidth=4;" parent="1" source="yDI7MJZ1IvgmgBcioRi8-27" target="PWVrWmLwcKZv5xCnu7mB-87" edge="1">
          <mxGeometry relative="1" as="geometry" />
        </mxCell>
        <mxCell id="yDI7MJZ1IvgmgBcioRi8-27" value="Node Client" style="rounded=1;whiteSpace=wrap;html=1;fillColor=#60a917;strokeColor=#2D7600;verticalAlign=top;treeFolding=0;treeMoving=0;comic=0;horizontal=0;container=0;fontColor=#ffffff;" parent="1" vertex="1">
          <mxGeometry x="-1688.5" y="1073" width="36" height="50" as="geometry" />
        </mxCell>
        <mxCell id="0xb4OPmmVKWiI0po0A9q-2" value="&lt;h1 style=&quot;text-align: left ; font-size: 12px&quot;&gt;&lt;span style=&quot;font-size: 12px&quot;&gt;Dynamyc &quot;Global&quot; mempool: one shared mempool between the network, with a dynamic temporary buffer for local transaction submits.&lt;/span&gt;&lt;/h1&gt;&lt;h1 style=&quot;text-align: left ; font-size: 12px&quot;&gt;&lt;span style=&quot;font-size: 12px ; font-weight: normal&quot;&gt;The nodes will have both incoming and outgoing TCP/IP connections from other node/peers (like in the current setting), shares a &lt;/span&gt;&lt;span style=&quot;font-size: 12px&quot;&gt;&quot;virtual&quot; 128KB&lt;/span&gt;&lt;span style=&quot;font-size: 12px ; font-weight: normal&quot;&gt; &lt;/span&gt;&lt;span style=&quot;font-size: 12px&quot;&gt;global mempool&lt;span style=&quot;font-weight: normal&quot;&gt;.&lt;/span&gt;&lt;/span&gt;&lt;/h1&gt;&lt;h1 style=&quot;text-align: left ; font-size: 12px&quot;&gt;&lt;br&gt;&lt;/h1&gt;&lt;h1 style=&quot;text-align: left ; font-size: 12px&quot;&gt;&lt;span style=&quot;font-weight: 400&quot;&gt;In addition to that, nodes that have trusted clients (connections through UNIX sockets), will have an 50% temporary buffer for accepting local transaction submits from their local trusted clients.&lt;/span&gt;&lt;/h1&gt;&lt;div style=&quot;text-align: left&quot;&gt;&lt;span style=&quot;font-weight: 400&quot;&gt;&lt;br&gt;&lt;/span&gt;&lt;/div&gt;&lt;div style=&quot;text-align: left&quot;&gt;&lt;b&gt;Pros&lt;/b&gt;&lt;span style=&quot;font-weight: 400&quot;&gt;:&lt;/span&gt;&lt;/div&gt;&lt;div style=&quot;text-align: left&quot;&gt;&lt;ul&gt;&lt;li&gt;&lt;span style=&quot;font-weight: 400&quot;&gt;It won&#39;t have any impact on nodes (relays, pools and their relays) which do not utilise trusted local transaction submissions.&lt;/span&gt;&lt;/li&gt;&lt;li&gt;&lt;span style=&quot;font-weight: 400&quot;&gt;The API providers do not need any sophisticated setting configurations, as the setup is equivalent with current relay setups/configs.&lt;/span&gt;&lt;/li&gt;&lt;li&gt;&lt;span style=&quot;font-weight: 400&quot;&gt;API providers would be able to scale their API relay backends dynamically to any tx submission requests (assuming their frontend can balance out request from non-responding/blocking nodes) without any additional settings.&lt;/span&gt;&lt;/li&gt;&lt;li&gt;The temporary buffers utilised automatically only on network congestions, that can last to an hour as max.&lt;/li&gt;&lt;li&gt;The temporary mempool buffer will be automatically drain out by the pace of the current network throughput (~64KB per 20 seconds) after the congestion is finished.&lt;/li&gt;&lt;li&gt;Afaik, only minimal code changes is required to implement in the ouroboros-network code, see my patch below the diagram&lt;/li&gt;&lt;li&gt;The user experience will be superior to existing one without any modification in the wallet for handling blocked requests&lt;/li&gt;&lt;/ul&gt;&lt;/div&gt;&lt;div style=&quot;text-align: left&quot;&gt;&lt;b&gt;Cons&lt;/b&gt;&lt;span style=&quot;font-weight: 400&quot;&gt;:&lt;/span&gt;&lt;/div&gt;&lt;div style=&quot;text-align: left&quot;&gt;&lt;ul&gt;&lt;li&gt;&lt;span style=&quot;font-weight: 400&quot;&gt;No any in my mind, and pls feel free to add or let me know if you know any.&lt;/span&gt;&lt;/li&gt;&lt;/ul&gt;&lt;/div&gt;" style="text;html=1;strokeColor=none;fillColor=none;align=center;verticalAlign=top;whiteSpace=wrap;rounded=0;shadow=0;glass=0;dashed=1;labelBackgroundColor=none;labelBorderColor=none;comic=0;sketch=0;fontSize=12;fontColor=#000000;" vertex="1" parent="1">
          <mxGeometry x="-2332" y="831" width="309" height="651" as="geometry" />
        </mxCell>
        <mxCell id="0xb4OPmmVKWiI0po0A9q-3" value="&lt;pre style=&quot;box-sizing: border-box ; font-size: 11.9px ; margin-top: 0px ; margin-bottom: 0px ; overflow-wrap: normal ; padding: 16px ; overflow: auto ; line-height: 1.45 ; border-radius: 6px ; word-break: normal ; font-style: normal ; font-weight: 400 ; letter-spacing: normal ; text-indent: 0px ; text-transform: none ; word-spacing: 0px&quot;&gt;&lt;span class=&quot;pl-md&quot; style=&quot;box-sizing: border-box&quot;&gt;&lt;font color=&quot;#ff0000&quot;&gt;--- a/ouroboros-consensus/src/Ouroboros/Consensus/Mempool/Impl/Pure.hs&lt;/font&gt;&lt;/span&gt;&lt;font color=&quot;#24292f&quot;&gt;&lt;br&gt;&lt;/font&gt;&lt;span class=&quot;pl-mi1&quot; style=&quot;box-sizing: border-box&quot;&gt;&lt;font color=&quot;#009900&quot;&gt;+++ b/ouroboros-consensus/src/Ouroboros/Consensus/Mempool/Impl/Pure.hs&lt;/font&gt;&lt;/span&gt;&lt;font color=&quot;#24292f&quot;&gt;&lt;br&gt;&lt;/font&gt;&lt;span class=&quot;pl-mdr&quot; style=&quot;color: rgb(36 , 41 , 47) ; box-sizing: border-box ; font-weight: bold&quot;&gt;@@ -130,7 +130,10 @@&lt;/span&gt;&lt;font color=&quot;#24292f&quot;&gt; pureTryAddTxs&lt;br&gt; pureTryAddTxs cfg txSize wti tx is&lt;br&gt;   | let size    = txSize tx&lt;br&gt;         curSize = msNumBytes  $ isMempoolSize is&lt;br&gt;&lt;/font&gt;&lt;span style=&quot;background-color: rgb(255 , 204 , 204)&quot;&gt;&lt;span class=&quot;pl-md&quot; style=&quot;box-sizing: border-box&quot;&gt;&lt;font color=&quot;#ff0000&quot;&gt;&lt;span class=&quot;pl-md&quot; style=&quot;box-sizing: border-box&quot;&gt;-&lt;/span&gt;  , curSize + size &amp;gt; getMempoolCapacityBytes (isCapacity is)&lt;/font&gt;&lt;/span&gt;&lt;font color=&quot;#24292f&quot;&gt;&lt;br&gt;&lt;/font&gt;&lt;/span&gt;&lt;font color=&quot;#009900&quot; style=&quot;background-color: rgb(204 , 255 , 204)&quot;&gt;&lt;span class=&quot;pl-mi1&quot; style=&quot;box-sizing: border-box&quot;&gt;&lt;span class=&quot;pl-mi1&quot; style=&quot;box-sizing: border-box&quot;&gt;+&lt;/span&gt;        capacity = getMempoolCapacityBytes (isCapacity is)&lt;/span&gt;&lt;br&gt;&lt;span class=&quot;pl-mi1&quot; style=&quot;box-sizing: border-box&quot;&gt;&lt;span class=&quot;pl-mi1&quot; style=&quot;box-sizing: border-box&quot;&gt;+&lt;/span&gt;  , case wti of&lt;/span&gt;&lt;br&gt;&lt;span class=&quot;pl-mi1&quot; style=&quot;box-sizing: border-box&quot;&gt;&lt;span class=&quot;pl-mi1&quot; style=&quot;box-sizing: border-box&quot;&gt;+&lt;/span&gt;      Intervene -&amp;gt; curSize + size &amp;gt; (3 * capacity `div` 2)&lt;/span&gt;&lt;br&gt;&lt;span class=&quot;pl-mi1&quot; style=&quot;box-sizing: border-box&quot;&gt;&lt;span class=&quot;pl-mi1&quot; style=&quot;box-sizing: border-box&quot;&gt;+&lt;/span&gt;      DoNotIntervene -&amp;gt; curSize + size &amp;gt; capacity&lt;/span&gt;&lt;/font&gt;&lt;font color=&quot;#24292f&quot;&gt;&lt;br&gt;   = NoSpaceLeft&lt;br&gt;   | otherwise&lt;br&gt;   = case eVtx of&lt;/font&gt;&lt;/pre&gt;" style="text;whiteSpace=wrap;html=1;strokeColor=default;" vertex="1" parent="1">
          <mxGeometry x="-1823" y="1195" width="534" height="272" as="geometry" />
        </mxCell>
      </root>
    </mxGraphModel>
  </diagram>
</mxfile>
